<?xml version="1.0" standalone="no"?>
<!DOCTYPE svg PUBLIC "-//W3C//DTD SVG 20010904//EN"
 "http://www.w3.org/TR/2001/REC-SVG-20010904/DTD/svg10.dtd">
<svg version="1.0" xmlns="http://www.w3.org/2000/svg"
 width="1080.000000pt" height="1080.000000pt" viewBox="0 0 1080.000000 1080.000000"
 preserveAspectRatio="xMidYMid meet">

<g transform="translate(0.000000,1080.000000) scale(0.100000,-0.100000)"
fill="#000000" stroke="none">
<path d="M3750 6205 l0 -1225 150 0 150 0 0 658 0 657 56 39 c88 61 235 132
314 151 53 13 98 16 174 13 132 -6 204 -38 254 -112 71 -107 81 -217 82 -903
l0 -503 145 0 146 0 -3 658 c-4 640 -4 659 -26 735 -32 114 -85 208 -153 271
-105 97 -218 137 -394 137 -128 0 -230 -22 -342 -75 -71 -34 -216 -127 -228
-146 -22 -35 -25 22 -25 430 l0 440 -150 0 -150 0 0 -1225z"/>
<path d="M8400 7185 l0 -155 165 0 165 0 0 155 0 155 -165 0 -165 0 0 -155z"/>
<path d="M10104 6779 c-137 -13 -291 -75 -431 -176 -41 -29 -76 -53 -79 -53
-2 0 -4 43 -4 95 l0 95 -145 0 -145 0 0 -880 0 -880 145 0 145 0 0 655 0 655
48 35 c69 51 226 130 310 155 61 19 90 22 180 18 194 -7 273 -66 319 -240 14
-55 17 -145 20 -670 l4 -608 150 0 149 0 0 548 c-1 734 -8 821 -85 978 -98
201 -305 298 -581 273z"/>
<path d="M557 6769 c-85 -9 -290 -44 -349 -60 l-38 -10 0 -149 c0 -83 3 -150
7 -150 3 0 54 15 112 34 275 89 529 107 719 51 118 -35 189 -130 199 -268 l6
-77 -26 0 c-60 0 -421 -32 -514 -46 -240 -35 -404 -103 -514 -213 -77 -78
-115 -151 -135 -260 -37 -211 11 -385 145 -521 224 -228 618 -226 953 5 44 30
81 55 84 55 2 0 4 -40 4 -90 l0 -90 145 0 145 0 0 658 c0 724 -1 728 -62 846
-43 81 -127 163 -210 204 -157 77 -414 108 -671 81z m653 -1114 l0 -245 -82
-54 c-172 -112 -276 -146 -439 -146 -123 0 -183 13 -250 53 -75 46 -111 113
-117 218 -8 135 29 215 129 281 73 47 145 73 264 92 95 16 360 42 453 45 l42
1 0 -245z"/>
<path d="M2521 6769 c-232 -30 -437 -159 -511 -323 -57 -125 -59 -286 -5 -404
76 -165 207 -237 570 -312 364 -75 422 -106 447 -238 24 -130 -44 -230 -186
-275 -103 -32 -334 -32 -453 1 -110 29 -242 87 -328 143 -38 25 -76 48 -82 53
-10 6 -13 -29 -13 -162 l0 -170 73 -30 c207 -86 312 -106 542 -107 227 0 303
14 443 81 212 102 326 287 308 501 -11 142 -68 247 -173 320 -104 73 -159 91
-447 149 -279 56 -386 104 -422 191 -22 52 -18 151 9 198 63 111 280 169 496
131 146 -26 320 -93 426 -165 17 -12 33 -21 38 -21 4 0 7 72 7 159 l0 159 -72
30 c-196 81 -464 117 -667 91z"/>
<path d="M5624 6723 c3 -10 100 -380 216 -823 116 -443 218 -831 227 -862 l16
-58 136 0 136 0 224 678 224 677 226 -677 226 -678 137 0 c76 0 138 2 138 4 0
2 101 393 225 868 124 474 225 869 225 876 0 9 -35 12 -144 12 -106 0 -145 -3
-148 -12 -3 -7 -72 -311 -153 -675 -82 -365 -151 -660 -154 -657 -3 3 -105
305 -226 672 l-221 667 -121 3 -122 3 -95 -293 c-52 -161 -150 -465 -218 -675
-67 -210 -126 -379 -129 -375 -6 6 -319 1319 -319 1336 0 3 -70 6 -156 6 -143
0 -155 -1 -150 -17z"/>
<path d="M8417 6733 c-4 -3 -7 -399 -7 -880 l0 -873 150 0 150 0 0 880 0 880
-143 0 c-79 0 -147 -3 -150 -7z"/>
<path d="M9985 4684 c-178 -28 -346 -139 -433 -286 -73 -123 -109 -296 -99
-473 12 -196 72 -340 187 -448 126 -120 251 -166 466 -174 163 -7 243 6 412
65 l107 38 3 122 c1 67 0 122 -3 122 -3 0 -35 -18 -71 -39 -147 -89 -340 -134
-482 -114 -116 17 -184 46 -250 108 -89 82 -142 200 -142 317 l0 48 485 0 485
0 0 118 c0 64 -7 148 -15 185 -41 193 -162 334 -334 388 -65 20 -247 33 -316
23z m245 -201 c117 -39 185 -137 204 -295 l6 -48 -381 0 -382 0 7 43 c9 58 56
153 100 204 91 104 290 147 446 96z"/>
<path d="M10420 2696 l0 -283 -82 33 c-496 200 -914 -170 -859 -759 20 -206
71 -337 174 -444 75 -78 153 -118 260 -135 150 -23 310 22 444 123 29 21 55
39 58 39 3 0 5 -29 5 -65 l0 -65 110 0 110 0 0 920 0 920 -110 0 -110 0 0
-284z m-141 -422 c30 -8 74 -23 98 -34 l43 -19 0 -378 0 -379 -65 -43 c-211
-138 -435 -142 -549 -10 -68 80 -99 200 -99 384 0 235 72 388 215 461 88 45
227 51 357 18z"/>
<path d="M8270 2880 c0 -5 7 -10 15 -10 8 0 15 5 15 10 0 6 -7 10 -15 10 -8 0
-15 -4 -15 -10z"/>
</g>
</svg>
